<?xml version="1.0" encoding="utf-8"?>
<!-- Generator: Adobe Illustrator 24.0.1, SVG Export Plug-In . SVG Version: 6.00 Build 0)  -->
<svg version="1.1" id="Ebene_1" xmlns="http://www.w3.org/2000/svg" xmlns:xlink="http://www.w3.org/1999/xlink" x="0px" y="0px"
	 viewBox="0 0 566.9 566.9" style="enable-background:new 0 0 566.9 566.9;" xml:space="preserve">
<style type="text/css">
	.st0{fill:#465674;}
	.st1{fill:#303E54;}
	.st2{fill:#717070;}
</style>
<g>
	<g>
		<g>
			<path class="st0" d="M236.4,173.4l98.1,53.1v106.6H232.4V217l-33.1-17.3v166.5h152.3c8.8,0,16-7.2,16-16V206.8l-131.3-71.1
				L236.4,173.4z"/>
			<path class="st0" d="M351.6,96.9H215.3c-8.8,0-16,7.2-16,16v82l111.5,61.2l19.7,10.4l-0.4-37.8l-97.8-53.5V130h102.2v13v10.1v32
				l33.1,17.7v-49.7V143v-30.1C367.6,104.1,360.5,96.9,351.6,96.9z"/>
		</g>
		<g>
			<path class="st1" d="M334.5,300.3v32.8H232.4v-27.8c-12.1-4.9-23.3-11.6-33.1-19.8v80.7h152.3c8.8,0,16-7.2,16-16v-75.2
				C358.2,285.3,347,293.8,334.5,300.3z"/>
		</g>
	</g>
	<g>
		<g>
			<g>
				<path class="st1" d="M106.3,400.5h5.1v30.9h16v4.6h-21.1V400.5z"/>
				<path class="st1" d="M131.8,400.5H152v4.5h-15.1v10.8h14.5v4.6h-14.5v11h15.5v4.5h-20.6V400.5z M136,392.7
					c0.7,0,1.2,0.2,1.7,0.7c0.5,0.5,0.7,1.1,0.7,1.7s-0.2,1.2-0.7,1.7c-0.5,0.5-1,0.7-1.7,0.7c-0.7,0-1.3-0.2-1.7-0.7
					c-0.5-0.5-0.7-1.1-0.7-1.7c0-0.7,0.2-1.2,0.7-1.7C134.8,392.9,135.4,392.7,136,392.7z M145.8,392.7c0.7,0,1.2,0.2,1.7,0.7
					c0.5,0.5,0.7,1.1,0.7,1.7s-0.2,1.2-0.7,1.7c-0.5,0.5-1,0.7-1.7,0.7c-0.7,0-1.3-0.2-1.7-0.7c-0.5-0.5-0.7-1.1-0.7-1.7
					c0-0.7,0.2-1.2,0.7-1.7C144.6,392.9,145.2,392.7,145.8,392.7z"/>
				<path class="st1" d="M186.1,400.5h4.8V436h-4.4l-23.8-27.4V436H158v-35.5h4.1l24,27.6V400.5z"/>
				<path class="st1" d="M207.3,421.2l-3.9-2.3c-2.4-1.5-4.1-2.9-5.2-4.4c-1-1.4-1.5-3.1-1.5-4.9c0-2.8,1-5.1,2.9-6.8
					c1.9-1.7,4.5-2.6,7.6-2.6c3,0,5.7,0.8,8.2,2.5v5.8c-2.6-2.5-5.3-3.7-8.3-3.7c-1.7,0-3,0.4-4.1,1.2c-1.1,0.8-1.6,1.8-1.6,3
					c0,1.1,0.4,2.1,1.2,3c0.8,0.9,2.1,1.9,3.8,2.9l3.9,2.3c4.3,2.6,6.5,5.9,6.5,9.9c0,2.8-1,5.2-2.9,6.9c-1.9,1.8-4.4,2.7-7.4,2.7
					c-3.5,0-6.7-1.1-9.6-3.2v-6.5c2.7,3.5,5.9,5.2,9.5,5.2c1.6,0,2.9-0.4,4-1.3c1.1-0.9,1.6-2,1.6-3.3
					C212,425.1,210.5,423.1,207.3,421.2z"/>
				<path class="st1" d="M219.4,400.5H249v4.5h-12.4V436h-5.1V405h-12.2V400.5z"/>
				<path class="st1" d="M253.9,400.5H274v4.5h-15.1v10.8h14.5v4.6h-14.5v11h15.5v4.5h-20.6V400.5z"/>
				<path class="st1" d="M280,436v-35.5h8.9c3.6,0,6.4,0.9,8.6,2.7c2.1,1.8,3.2,4.2,3.2,7.2c0,2.1-0.5,3.9-1.6,5.4
					c-1,1.5-2.5,2.6-4.5,3.4c1.1,0.7,2.2,1.8,3.3,3.1c1.1,1.3,2.6,3.5,4.6,6.7c1.2,2,2.2,3.5,3,4.6l1.9,2.5h-6.1l-1.5-2.3
					c-0.1-0.1-0.2-0.2-0.3-0.4l-1-1.4l-1.6-2.6l-1.7-2.8c-1-1.5-2-2.6-2.9-3.5c-0.9-0.9-1.7-1.5-2.4-1.9c-0.7-0.4-1.9-0.6-3.6-0.6
					h-1.3V436H280z M286.7,404.8h-1.5V416h1.9c2.6,0,4.3-0.2,5.3-0.7c1-0.4,1.7-1.1,2.2-2c0.5-0.9,0.8-1.9,0.8-3
					c0-1.1-0.3-2.1-0.9-3c-0.6-0.9-1.4-1.5-2.5-1.9C290.9,405,289.1,404.8,286.7,404.8z"/>
				<path class="st1" d="M325.8,400.5h5.1v30.9h16v4.6h-21.1V400.5z"/>
				<path class="st1" d="M367,400.5h6.2l-13.1,16.7V436h-5.2v-18.8l-13.1-16.7h6.1l9.5,12.2L367,400.5z"/>
				<path class="st1" d="M407.7,427.8v5.6c-3.7,2-8,3.1-12.9,3.1c-4,0-7.3-0.8-10.1-2.4c-2.8-1.6-5-3.8-6.6-6.6
					c-1.6-2.8-2.4-5.8-2.4-9.1c0-5.2,1.8-9.5,5.5-13c3.7-3.5,8.2-5.3,13.6-5.3c3.7,0,7.9,1,12.4,2.9v5.5c-4.2-2.4-8.2-3.6-12.2-3.6
					c-4.1,0-7.4,1.3-10.1,3.9c-2.7,2.6-4,5.8-4,9.6c0,3.9,1.3,7.1,4,9.6c2.6,2.5,6,3.8,10.1,3.8
					C399.4,431.8,403.6,430.4,407.7,427.8z"/>
				<path class="st1" d="M414,400.5h20.1v4.5h-15.1v10.8h14.5v4.6h-14.5v11h15.5v4.5H414V400.5z"/>
				<path class="st1" d="M440,400.5h20.1v4.5h-15.1v10.8h14.5v4.6h-14.5v11h15.5v4.5H440V400.5z"/>
			</g>
			<g>
				<g>
					<path class="st2" d="M106.3,452.4h1v17.3h-1V452.4z"/>
					<path class="st2" d="M115.7,452.4h1.2c0.4,0.6,0.9,1.3,1.4,2c0.4,0.6,0.9,1.3,1.5,2.3c0.9,1.3,1.4,2.2,1.7,2.6l4.4,7l1.3,2.2
						v-16h1v17.4h-1.2l-9.5-14.8l-0.7-1.3v16.1h-1V452.4z"/>
					<path class="st2" d="M134.5,452.3h11.7v0.8h-5.3v16.5h-1v-16.5h-5.4V452.3z"/>
					<path class="st2" d="M153.3,452.4h9.8v0.8h-8.8v7.2h8.3v0.9h-8.3v7.6h9.3v0.9h-10.2V452.4z"/>
					<path class="st2" d="M171,452.4h5.7c1.5,0,2.7,0.3,3.6,1c1,0.7,1.6,1.8,1.6,3.2c0,1.4-0.3,2.4-1,3.1c-0.5,0.5-1.5,1.1-3,1.6
						c1.4,0,2.4,0.5,2.9,1.6c0.3,0.5,0.5,1.7,0.7,3.5c0.1,0.6,0.2,1.1,0.3,1.7c0.1,0.6,0.3,1.1,0.5,1.7h-1.2l-0.8-5.1
						c-0.2-1.2-0.7-2-1.5-2.5c-0.6-0.4-1.6-0.5-2.9-0.5h-4v8H171V452.4z M175.8,460.8c3.3,0,5-1.4,5-4.1c0-2.3-1.4-3.5-4.1-3.5h-4.8
						v7.6H175.8z"/>
					<path class="st2" d="M190.4,452.4h1.2c0.4,0.6,0.9,1.3,1.4,2c0.4,0.6,0.9,1.3,1.5,2.3c0.9,1.3,1.4,2.2,1.7,2.6l4.4,7l1.3,2.2
						v-16h1v17.4h-1.2l-9.5-14.8l-0.7-1.3v16.1h-1V452.4z"/>
					<path class="st2" d="M215.3,452.3h1.3l6.3,17.4h-1l-2.1-5.6h-7.8l-2,5.6l-1.1,0L215.3,452.3z M219.6,463.4l-3.7-10.1l-3.7,10.1
						H219.6z"/>
					<path class="st2" d="M226.7,452.3h11.7v0.8H233v16.5h-1v-16.5h-5.4V452.3z"/>
					<path class="st2" d="M245.9,452.4h1v17.3h-1V452.4z"/>
					<path class="st2" d="M261.9,452.1c2.4,0,4.3,0.9,5.7,2.6c1.3,1.6,2,3.6,2,6c0,2.6-0.6,4.7-1.8,6.4c-1.4,1.9-3.3,2.9-5.8,2.9
						c-2.5,0-4.4-0.9-5.8-2.7c-1.3-1.6-1.9-3.7-1.9-6.3c0-2.6,0.6-4.7,1.9-6.3C257.5,453,259.4,452.1,261.9,452.1z M262,469.1
						c2.2,0,3.9-0.8,5.1-2.6c1-1.5,1.5-3.4,1.5-5.8c0-2.4-0.6-4.3-1.7-5.6c-1.2-1.5-3-2.2-5.4-2.2c-2,0-3.6,0.9-4.8,2.7
						c-1,1.5-1.5,3.4-1.5,5.5c0,2.3,0.5,4.1,1.6,5.6C258.1,468.3,259.8,469.1,262,469.1z"/>
					<path class="st2" d="M277.6,452.4h1.2c0.4,0.6,0.9,1.3,1.4,2c0.4,0.6,0.9,1.3,1.5,2.3c0.9,1.3,1.4,2.2,1.7,2.6l4.4,7l1.3,2.2
						v-16h1v17.4h-1.2l-9.5-14.8l-0.7-1.3v16.1h-1V452.4z"/>
					<path class="st2" d="M302.5,452.3h1.3l6.3,17.4h-1l-2.1-5.6h-7.8l-2,5.6l-1.1,0L302.5,452.3z M306.8,463.4l-3.7-10.1l-3.7,10.1
						H306.8z"/>
					<path class="st2" d="M317.7,452.3h1v16.5h8.8v0.9h-9.8V452.3z"/>
					<path class="st2" d="M345.8,465.2c0.5,2.6,2.1,3.9,4.6,3.9c3.1,0,4.6-1.4,4.6-4.1c0-1.4-0.8-2.5-2.4-3.2l-4.5-1.7
						c-1.6-0.8-2.4-1.9-2.4-3.5c0-1.5,0.5-2.6,1.4-3.4c0.9-0.8,2.1-1.1,3.6-1.1c1.3,0,2.5,0.4,3.3,1.1c0.9,0.7,1.4,1.8,1.7,3.1
						l-1,0.1c-0.2-1.1-0.7-1.9-1.4-2.5c-0.7-0.6-1.6-0.9-2.7-0.9c-1.2,0-2.2,0.3-2.9,0.8c-0.8,0.6-1.2,1.5-1.2,2.7
						c0,1.3,0.8,2.3,2.4,3l4.5,1.7c1.6,0.9,2.4,2.2,2.4,3.9c0,1.6-0.6,2.8-1.7,3.7c-1,0.8-2.4,1.2-4,1.2c-1.5,0-2.7-0.4-3.7-1.2
						c-0.9-0.8-1.6-1.9-1.8-3.4L345.8,465.2z"/>
					<path class="st2" d="M376.3,457.2c-0.5-1.5-1.2-2.5-1.9-3.2c-0.9-0.8-2.1-1.1-3.5-1.1c-2.2,0-3.9,0.9-5.1,2.6
						c-1.1,1.5-1.6,3.4-1.6,5.7c0,2.3,0.5,4.1,1.6,5.6c1.2,1.6,2.9,2.4,5.1,2.4c1.4,0,2.6-0.4,3.6-1.2c1-0.8,1.7-1.9,2-3.2l1.1,0.2
						c-1.2,3.4-3.4,5.1-6.7,5.1c-2.4,0-4.3-0.8-5.7-2.5c-1.3-1.5-1.9-3.6-1.9-6.1c0-2.6,0.6-4.8,1.7-6.5c1.3-1.9,3.3-2.9,5.8-2.9
						c1.9,0,3.3,0.4,4.3,1.2c0.8,0.7,1.6,2,2.4,3.8L376.3,457.2z"/>
					<path class="st2" d="M385.2,452.4h1v8.1h10.3v-8.1h0.9v17.4h-0.9v-8.5h-10.3v8.5h-1V452.4z"/>
					<path class="st2" d="M412.8,452.1c2.4,0,4.3,0.9,5.7,2.6c1.3,1.6,2,3.6,2,6c0,2.6-0.6,4.7-1.8,6.4c-1.4,1.9-3.3,2.9-5.8,2.9
						c-2.5,0-4.4-0.9-5.8-2.7c-1.3-1.6-1.9-3.7-1.9-6.3c0-2.6,0.6-4.7,1.9-6.3C408.4,453,410.3,452.1,412.8,452.1z M412.9,469.1
						c2.2,0,3.9-0.8,5.1-2.6c1-1.5,1.5-3.4,1.5-5.8c0-2.4-0.6-4.3-1.7-5.6c-1.2-1.5-3-2.2-5.4-2.2c-2,0-3.6,0.9-4.8,2.7
						c-1,1.5-1.5,3.4-1.5,5.5c0,2.3,0.5,4.1,1.6,5.6C409,468.3,410.7,469.1,412.9,469.1z"/>
					<path class="st2" d="M435.1,452.1c2.4,0,4.3,0.9,5.7,2.6c1.3,1.6,2,3.6,2,6c0,2.6-0.6,4.7-1.8,6.4c-1.4,1.9-3.3,2.9-5.8,2.9
						c-2.5,0-4.4-0.9-5.8-2.7c-1.3-1.6-1.9-3.7-1.9-6.3c0-2.6,0.6-4.7,1.9-6.3C430.7,453,432.6,452.1,435.1,452.1z M435.1,469.1
						c2.2,0,3.9-0.8,5.1-2.6c1-1.5,1.5-3.4,1.5-5.8c0-2.4-0.6-4.3-1.7-5.6c-1.2-1.5-3-2.2-5.4-2.2c-2,0-3.6,0.9-4.8,2.7
						c-1,1.5-1.5,3.4-1.5,5.5c0,2.3,0.5,4.1,1.6,5.6C431.2,468.3,432.9,469.1,435.1,469.1z"/>
					<path class="st2" d="M450.8,452.3h1v16.5h8.8v0.9h-9.8V452.3z"/>
				</g>
			</g>
		</g>
		<polygon class="st1" points="417.1,395.7 431,393.3 431,390.4 417.1,392.8 		"/>
	</g>
</g>
</svg>
