<?xml version="1.0" encoding="UTF-8"?>
<svg id="Layer_1" xmlns="http://www.w3.org/2000/svg" version="1.1" viewBox="0 0 512 512">
  <!-- Generator: Adobe Illustrator 30.4.0, SVG Export Plug-In . SVG Version: 2.1.4 Build 226)  -->
  <defs>
    <style>
      .st0 {
        fill: #fff;
      }

      .st1 {
        fill: #f1f1f2;
      }
    </style>
  </defs>
  <g>
    <g>
      <g>
        <path class="st1" d="M42.3,397.2h6.1v37.3h19.3v5.6h-25.4v-42.8Z"/>
        <path class="st1" d="M73.1,397.2h24.3v5.5h-18.2v13.1h17.5v5.5h-17.5v13.3h18.7v5.5h-24.9v-42.8ZM78.2,387.7c.8,0,1.5.3,2.1.9.6.6.9,1.3.9,2.1s-.3,1.5-.8,2.1c-.6.6-1.2.8-2,.8s-1.5-.3-2.1-.9c-.6-.6-.9-1.3-.9-2.1s.3-1.5.8-2.1,1.2-.8,2-.8ZM90,387.7c.8,0,1.5.3,2.1.9.6.6.9,1.3.9,2.1s-.3,1.5-.8,2.1c-.6.6-1.2.8-2,.8s-1.5-.3-2.1-.9c-.6-.6-.9-1.3-.9-2.1s.3-1.5.8-2.1c.6-.6,1.2-.8,2-.8Z"/>
        <path class="st1" d="M138.6,397.2h5.8v42.8h-5.3l-28.6-33v33h-5.8v-42.8h5l28.9,33.3v-33.3Z"/>
        <path class="st1" d="M164.2,422.1l-4.7-2.8c-2.9-1.8-5-3.5-6.2-5.3-1.2-1.7-1.9-3.7-1.9-6,0-3.4,1.2-6.1,3.5-8.2,2.3-2.1,5.4-3.2,9.1-3.2s6.9,1,9.8,3v7c-3.1-3-6.4-4.5-10-4.5s-3.7.5-4.9,1.4c-1.3.9-1.9,2.1-1.9,3.6s.5,2.5,1.4,3.6c.9,1.1,2.5,2.3,4.6,3.5l4.7,2.8c5.2,3.1,7.8,7.1,7.8,11.9s-1.2,6.2-3.5,8.4c-2.3,2.1-5.3,3.2-9,3.2s-8.1-1.3-11.6-3.9v-7.8c3.3,4.2,7.1,6.3,11.5,6.3s3.5-.5,4.8-1.6c1.3-1.1,1.9-2.4,1.9-4,0-2.6-1.9-5.1-5.6-7.4Z"/>
        <path class="st1" d="M178.7,397.1h35.8v5.5h-14.9v37.4h-6.2v-37.4h-14.7v-5.5Z"/>
        <path class="st1" d="M220.3,397.2h24.3v5.5h-18.2v13.1h17.5v5.5h-17.5v13.3h18.7v5.5h-24.9v-42.8Z"/>
        <path class="st1" d="M251.9,440v-42.8h10.7c4.3,0,7.8,1.1,10.3,3.2,2.5,2.1,3.8,5.1,3.8,8.7s-.6,4.7-1.9,6.5c-1.2,1.8-3,3.2-5.4,4.1,1.4.9,2.7,2.1,4,3.7,1.3,1.6,3.1,4.3,5.5,8.1,1.5,2.4,2.7,4.3,3.6,5.5l2.3,3.1h-7.3l-1.9-2.8c0-.1-.2-.3-.4-.5l-1.2-1.7-1.9-3.1-2.1-3.3c-1.3-1.8-2.4-3.2-3.5-4.2-1.1-1-2-1.8-2.9-2.2-.8-.5-2.3-.7-4.3-.7h-1.6v18.6h-6.1ZM259.8,402.4h-1.8v13.5h2.3c3.1,0,5.2-.3,6.4-.8,1.2-.5,2.1-1.3,2.7-2.4.6-1.1,1-2.3,1-3.7s-.4-2.6-1.1-3.7c-.7-1.1-1.7-1.9-3-2.3-1.3-.5-3.5-.7-6.5-.7Z"/>
        <path class="st1" d="M307.1,397.2h6.1v37.3h19.3v5.6h-25.4v-42.8Z"/>
        <path class="st1" d="M356.7,397.2h7.4l-15.8,20.2v22.7h-6.3v-22.7l-15.8-20.2h7.4l11.5,14.8,11.6-14.8Z"/>
        <path class="st1" d="M405.8,430.1v6.7c-4.5,2.5-9.7,3.7-15.6,3.7s-8.8-1-12.2-2.9c-3.3-1.9-6-4.6-7.9-7.9-1.9-3.4-2.9-7-2.9-11,0-6.2,2.2-11.5,6.7-15.7,4.4-4.3,9.9-6.4,16.5-6.4s9.5,1.2,15,3.5v6.6c-5-2.9-9.9-4.3-14.7-4.3s-9,1.5-12.2,4.6c-3.2,3.1-4.9,7-4.9,11.6s1.6,8.6,4.8,11.6c3.2,3,7.3,4.5,12.2,4.5s10.3-1.6,15.2-4.8Z"/>
        <path class="st1" d="M413.4,397.2h24.3v5.5h-18.2v13.1h17.5v5.5h-17.5v13.3h18.7v5.5h-24.9v-42.8Z"/>
        <path class="st1" d="M444.8,397.2h24.3v5.5h-18.2v13.1h17.5v5.5h-17.5v13.3h18.7v5.5h-24.9v-42.8Z"/>
      </g>
      <g>
        <path class="st1" d="M42.3,459.7h1.2v20.9h-1.2v-20.9Z"/>
        <path class="st1" d="M53.7,459.7h1.4c.5.7,1.1,1.5,1.7,2.4.5.7,1.1,1.6,1.8,2.8,1,1.6,1.7,2.6,2,3.1l5.3,8.4,1.6,2.6v-19.3h1.2v21h-1.4l-11.5-17.9-.9-1.5v19.4h-1.2v-21Z"/>
        <path class="st1" d="M76.4,459.7h14.1v1h-6.4v20h-1.2v-20h-6.5v-1Z"/>
        <path class="st1" d="M99,459.7h11.8v1h-10.6v8.6h10.1v1h-10.1v9.2h11.2v1.1h-12.4v-20.9Z"/>
        <path class="st1" d="M120.4,459.7h6.9c1.8,0,3.2.4,4.3,1.2,1.3.9,1.9,2.2,1.9,3.9s-.4,2.9-1.2,3.8c-.6.6-1.8,1.3-3.6,1.9,1.7,0,2.9.6,3.5,1.9.3.6.6,2,.8,4.2,0,.7.2,1.4.3,2,.2.7.4,1.4.6,2.1h-1.5l-1-6.1c-.2-1.4-.8-2.4-1.8-3-.8-.4-1.9-.6-3.5-.6h-4.8v9.7h-1.1v-20.9ZM126.2,469.9c4,0,6-1.6,6-4.9s-1.6-4.2-4.9-4.2h-5.8v9.1h4.7Z"/>
        <path class="st1" d="M143.7,459.7h1.4c.5.7,1.1,1.5,1.7,2.4.5.7,1.1,1.6,1.8,2.8,1,1.6,1.7,2.6,2,3.1l5.3,8.4,1.6,2.6v-19.3h1.2v21h-1.4l-11.5-17.9-.9-1.5v19.4h-1.2v-21Z"/>
        <path class="st1" d="M173.8,459.7h1.6l7.6,21h-1.2l-2.5-6.7h-9.4l-2.4,6.7h-1.3s7.6-21,7.6-21ZM179,473l-4.4-12.2-4.4,12.2h8.8Z"/>
        <path class="st1" d="M187.5,459.7h14.1v1h-6.4v20h-1.2v-20h-6.5v-1Z"/>
        <path class="st1" d="M210.7,459.7h1.2v20.9h-1.2v-20.9Z"/>
        <path class="st1" d="M230,459.4c2.9,0,5.2,1,6.8,3.1,1.6,1.9,2.4,4.4,2.4,7.3s-.7,5.7-2.2,7.7c-1.7,2.3-4,3.5-7,3.5s-5.3-1.1-7-3.3c-1.5-2-2.3-4.5-2.3-7.6s.7-5.6,2.2-7.6c1.7-2.1,4-3.2,7-3.2ZM230.1,479.9c2.7,0,4.7-1,6.1-3.1,1.2-1.8,1.8-4.1,1.8-6.9s-.7-5.1-2.1-6.8c-1.5-1.8-3.6-2.7-6.5-2.7s-4.4,1.1-5.7,3.2c-1.2,1.9-1.8,4.1-1.8,6.6s.6,5,1.9,6.7c1.4,2,3.5,2.9,6.1,2.9Z"/>
        <path class="st1" d="M248.9,459.7h1.4c.5.7,1.1,1.5,1.7,2.4.5.7,1.1,1.6,1.8,2.8,1,1.6,1.7,2.6,2,3.1l5.3,8.4,1.6,2.6v-19.3h1.2v21h-1.4l-11.5-17.9-.9-1.5v19.4h-1.2v-21Z"/>
        <path class="st1" d="M279,459.7h1.6l7.6,21h-1.2l-2.5-6.7h-9.4l-2.4,6.7h-1.3s7.6-21,7.6-21ZM284.2,473l-4.4-12.2-4.4,12.2h8.8Z"/>
        <path class="st1" d="M297.3,459.7h1.2v19.9h10.6v1.1h-11.8v-21Z"/>
        <path class="st1" d="M331.2,475.2c.6,3.1,2.5,4.7,5.6,4.7s5.6-1.7,5.6-5-1-3-2.9-3.9l-5.4-2.1c-1.9-.9-2.9-2.3-2.9-4.2s.6-3.2,1.7-4.1c1.1-.9,2.6-1.4,4.4-1.4s3,.4,4,1.3c1.1.9,1.7,2.1,2,3.7h-1.2c-.2-1.2-.8-2.2-1.7-2.9-.9-.7-2-1.1-3.3-1.1s-2.6.3-3.5,1c-.9.7-1.4,1.8-1.4,3.3s1,2.8,2.9,3.6l5.4,2.1c2,1.1,2.9,2.6,2.9,4.7s-.7,3.4-2.1,4.5c-1.2,1-2.8,1.4-4.8,1.4s-3.3-.5-4.4-1.5c-1.1-1-1.9-2.3-2.2-4.1l1.2-.2Z"/>
        <path class="st1" d="M367.9,465.6c-.6-1.7-1.4-3-2.3-3.8-1.1-.9-2.5-1.4-4.3-1.4-2.6,0-4.7,1-6.1,3.1-1.3,1.8-1.9,4.1-1.9,6.9s.6,5,1.9,6.7c1.4,2,3.5,2.9,6.1,2.9s3.1-.5,4.3-1.4c1.2-1,2-2.3,2.4-3.9l1.3.2c-1.4,4.1-4.1,6.1-8.1,6.1s-5.2-1-6.9-3c-1.5-1.9-2.3-4.3-2.3-7.3s.7-5.8,2.1-7.8c1.6-2.3,3.9-3.5,7-3.5s4,.5,5.1,1.5c1,.8,2,2.4,2.9,4.6l-1.3.2Z"/>
        <path class="st1" d="M378.7,459.7h1.2v9.7h12.4v-9.7h1.1v21h-1.1v-10.2h-12.4v10.2h-1.2v-21Z"/>
        <path class="st1" d="M412,459.4c2.9,0,5.2,1,6.8,3.1,1.6,1.9,2.4,4.4,2.4,7.3s-.7,5.7-2.2,7.7c-1.7,2.3-4,3.5-7,3.5s-5.3-1.1-7-3.3c-1.5-2-2.3-4.5-2.3-7.6s.7-5.6,2.2-7.6c1.7-2.1,4-3.2,7-3.2ZM412,479.9c2.7,0,4.7-1,6.1-3.1,1.2-1.8,1.8-4.1,1.8-6.9s-.7-5.1-2.1-6.8c-1.5-1.8-3.6-2.7-6.5-2.7s-4.4,1.1-5.7,3.2c-1.2,1.9-1.8,4.1-1.8,6.6s.6,5,1.9,6.7c1.4,2,3.5,2.9,6.1,2.9Z"/>
        <path class="st1" d="M438.9,459.4c2.9,0,5.2,1,6.8,3.1,1.6,1.9,2.4,4.4,2.4,7.3s-.7,5.7-2.2,7.7c-1.7,2.3-4,3.5-7,3.5s-5.3-1.1-7-3.3c-1.5-2-2.3-4.5-2.3-7.6s.7-5.6,2.2-7.6c1.7-2.1,4-3.2,7-3.2ZM438.9,479.9c2.7,0,4.7-1,6.1-3.1,1.2-1.8,1.8-4.1,1.8-6.9s-.7-5.1-2.1-6.8c-1.5-1.8-3.6-2.7-6.5-2.7s-4.4,1.1-5.7,3.2c-1.2,1.9-1.8,4.1-1.8,6.6s.6,5,1.9,6.7c1.4,2,3.5,2.9,6.1,2.9Z"/>
        <path class="st1" d="M457.8,459.7h1.2v19.9h10.6v1.1h-11.8v-21Z"/>
      </g>
    </g>
    <g>
      <path class="st0" d="M199.3,123.3l118.3,64.1v128.6h-123.2v-140.1l-39.9-20.8v200.8h183.7c10.6,0,19.3-8.6,19.3-19.3v-173l-158.4-85.8.2,45.5Z"/>
      <path class="st0" d="M338.2,31h-164.5c-10.6,0-19.3,8.6-19.3,19.3v98.9l134.5,73.8,23.8,12.5-.4-45.6-117.9-64.5v-54.5h123.2v66.4l39.9,21.4V50.3c0-10.6-8.6-19.3-19.3-19.3Z"/>
    </g>
    <path class="st1" d="M317.6,276.4v39.6h-123.2v-33.5c-14.6-5.9-28-14-39.9-23.9v97.3h183.7c10.6,0,19.3-8.6,19.3-19.3v-90.7c-11.4,12.3-24.9,22.6-39.9,30.5Z"/>
  </g>
  <polygon class="st1" points="417.2 391.3 433.9 388.5 433.9 385 417.2 387.8 417.2 391.3"/>
</svg>